<svg width="73" height="71" viewBox="0 0 73 71" fill="none" xmlns="http://www.w3.org/2000/svg">
<path fill-rule="evenodd" clip-rule="evenodd" d="M7.06037 45.7319C7.48175 45.3177 8.15144 45.3241 8.56913 45.7395C13.5761 50.5554 18.8481 53.005 24.2235 53.0664C29.4576 53.1254 34.7455 50.8547 39.9335 46.3557C41.0867 45.3737 42.8693 43.3291 44.4373 40.9151C43.1216 39.0226 42.2449 36.7814 41.812 34.6223C41.1735 31.4334 41.6384 28.5012 42.6907 27.0491C43.2738 26.2449 44.0257 25.7521 44.9048 25.5467C46.0302 25.2854 47.5592 25.5185 49.3141 27.0071C51.7353 29.0704 52.3238 32.0166 51.6005 35.259C51.2185 36.9635 50.4472 38.7522 49.4864 40.4712C50.5981 41.3586 51.9812 41.872 53.6644 41.6871C57.2274 41.3201 59.8989 38.3944 61.7992 34.9521C63.4472 31.9742 65.4325 27.575 64.9077 24.0794C64.7301 22.8914 64.2104 21.8705 65.1908 20.8996C66.6918 19.3975 68.0677 20.9525 68.3141 22.584C68.8414 26.089 67.592 30.3111 66.359 33.5445C64.0962 39.4946 59.8498 44.8463 54.116 45.5841C51.428 45.9176 49.1471 45.2028 47.2996 43.8747C45.5459 46.3084 43.6546 48.3219 42.4136 49.3324C36.2733 54.2323 30.0935 56.5109 24.1144 56.1643C18.1412 55.8212 12.348 52.8884 7.0528 47.2407C6.63855 46.8193 6.639 46.1462 7.06037 45.7319ZM46.8879 36.1903C47.2608 35.2014 47.5127 34.2298 47.5866 33.306C47.6787 32.1312 47.452 31.0418 46.5364 30.2676C46.3813 30.1384 46.1923 29.958 46.0372 29.8288C45.9205 30.2367 45.7186 31.0392 45.7157 31.7029C45.7159 33.1845 46.0527 34.9475 46.7287 36.5895C46.7923 36.4519 46.8431 36.3228 46.8879 36.1903Z" fill="white"/>
<path fill-rule="evenodd" clip-rule="evenodd" d="M9.99388 48.0748C10.4817 49.1646 10.9531 50.324 11.2895 51.4292C11.8068 53.1539 12.0287 54.7318 11.6032 55.8804C11.4705 56.4534 10.8928 56.8091 10.3232 56.6704C9.75025 56.5376 9.39457 55.9599 9.53326 55.3904C9.56261 55.1063 9.46351 54.8114 9.36967 54.48C9.1553 53.6987 8.67558 52.883 8.15359 52.0033C7.48631 50.8813 6.68371 49.7604 5.99904 48.7234C5.37604 47.7854 4.85658 46.9151 4.52606 46.2251C4.00414 45.1395 3.97587 44.228 4.09398 43.6941C4.12694 43.5547 5.28414 41.4817 7.26325 42.3075C7.97079 42.6051 9.72428 43.4511 9.81089 43.4932C10.8644 44.0698 12.8213 45.1124 14.685 45.6577C15.274 45.8313 15.8426 45.9854 16.3608 46.0072C16.3882 45.9597 16.4157 45.9122 16.449 45.8681C16.9329 45.1809 17.874 45.0192 18.5645 45.4971C18.9473 45.726 19.4465 46.3707 19.5801 46.7568C19.8363 47.5068 19.5511 48.1106 18.8511 48.6096C17.8975 49.2869 16.518 49.4808 14.9673 49.3539C13.3374 49.213 11.4908 48.6381 9.99388 48.0748ZM8.27253 44.5935C8.15695 44.3683 8.1177 44.203 8.27359 44.1663C8.44823 44.1245 8.33202 44.4219 8.27253 44.5935Z" fill="white"/>
</svg>
